

<svg width="618.8mm" height="109mm" version="1.1" viewBox="0 0 618.8 109" xmlns="http://www.w3.org/2000/svg">
 <path d="m342.07 108.22-6.0476-0.33598-0.33598-9.7434-0.33597-9.7434h-40.429c-22.236 0-40.681-0.25159-40.989-0.55909-0.30804-0.30749-0.56009-4.0872-0.56009-8.3995v-7.8404l49.725-0.19147c27.349-0.10532 50.708-0.016 51.909 0.19844l2.1839 0.38991v18.112c0 13.985-0.19141 18.137-0.83995 18.219-1.9949 0.25406-8.6824 0.20396-14.279-0.10697zm37.966-20.087c0-16.163 0.18896-20.831 0.85349-21.086 0.66815-0.2564 17.247-0.15287 19.473 0.1216 0.27719 0.0341 0.50397 1.5299 0.50397 3.3238v3.2616l13.271 0.3601c7.2991 0.19806 21.36 0.19688 31.246-3e-3l17.975-0.36273v-3.2462c0-4.052 0.0218-4.0589 12.095-3.8013l9.0714 0.19351 0.40374 20.495c0.22205 11.272 0.27981 20.721 0.12833 20.999s-23.843 0.50397-52.648 0.50397l-52.373 7e-5zm82.147 5.3081c0.8052-3e-3 1.1759-0.53392 1.1759-1.6842v-1.6799h-61.82v1.6239c0 0.89314 0.37798 1.801 0.83995 2.0176s13.842 0.24366 29.734 0.0603 29.423-0.33531 30.07-0.33768zm60.027 13.803c-4.742-1.972-9.2071-6.1421-11.497-10.738-1.2979-2.6046-1.6596-4.3696-1.6545-8.0731 0.0147-10.63 7.0431-18.481 18.424-20.58 2.6423-0.48745 11.978-0.62041 27.729-0.39493 13.088 0.18736 25.696-0.20779 28.143-0.28274 4.4033-0.13491 5.0347-0.41324 8.377 0.68397 7.5366 2.4742 12.3 6.7653 14.769 13.304 3.4506 9.1394-0.61602 20.134-9.0859 24.564-5.2463 2.7442-5.7878 2.7856-38.974 2.9808l-32.254 0.18968zm65.82-17.466c1.6229-1.6229 1.6564-2.9307 0.12561-4.909-0.50228-0.64915-7.2971-0.83995-29.913-0.83995-26.287 0-29.388 0.11311-30.492 1.1121-1.6011 1.449-1.5589 3.2616 0.11508 4.9355 1.3018 1.3018 2.2399 1.3439 29.933 1.3439h28.589zm-380.45 17.97c-2.6921-0.35074-2.9036-1.1522-2.9152-11.048-8e-3 -6.8107-0.16064-7.8817-1.1791-8.2725-0.64344-0.24691-17.653-0.23346-37.799 0.0299-32.579 0.42588-36.724 0.36416-37.49-0.55821-0.61875-0.74555-0.80727-3.2767-0.67072-9.0052l0.18995-7.9682 40.653-0.35569v-11.195l-9.1777-0.44015c-5.0477-0.24209-14.422-0.44015-20.831-0.44015h-11.653v-8.3276c0-6.9738 0.17279-8.3939 1.0629-8.7354 0.58459-0.22433 11.848-0.44647 25.03-0.49365 13.182-0.0472 29.562-0.27396 36.399-0.50397l12.431-0.41819 0.84582-3.3598c0.4778-1.8979 0.77017-6.2835 0.67196-10.079l-0.17386-6.7196h-76.603l-0.1875-8.9034-0.18749-8.9034 2.8753-5e-3c1.5814-3e-3 10.435-0.14994 19.674-0.32728 26.048-0.49995 73.419-0.51807 74.212-0.0284 1.2001 0.74173 0.94091 30.452-0.29629 33.958-1.5649 4.4355-1.4345 4.7037 2.2872 4.7037h3.2951l0.4626 6.8876c0.25443 3.7882 0.35913 7.9459 0.23265 9.2394l-0.22995 2.3519-40.653 0.35569v5.6299c0 4.5138 0.2107 5.7108 1.0629 6.0378 0.58459 0.22434 8.8822 0.40788 18.439 0.40788s17.511 0.22678 17.675 0.50396c0.16421 0.27719 0.40883 8.5171 0.54363 18.311l0.24507 17.807-8.0635 0.0701c-4.4349 0.0386-9.0154-0.0539-10.179-0.20545zm-205.35-1.9029c-0.27718-0.29568-0.50396-6.8199-0.50396-14.498v-13.961l8.5042-0.2064c4.9739-0.12071 8.8704 0.0726 9.3862 0.46556 0.55537 0.4231 0.95208 2.5384 1.0712 5.7116l0.18915 5.0397 16.127-2e-3c8.8698-1e-3 26.408-0.10777 38.974-0.23711l22.847-0.23513 0.1875 8.8046 0.18749 8.8045-21.69 6.8e-4c-11.93 8e-4 -33.634 0.19232-48.232 0.4259-14.598 0.23357-26.769 0.18276-27.046-0.11291zm77.012-36.014c-0.49005-0.61782-0.87702-11.925-1.175-34.334l-0.44437-33.413 1.5293-0.38017c0.84112-0.2091 5.0067-0.29242 9.2568-0.18516l7.7275 0.19501 0.42737 8.7354c0.23504 4.8045 0.46183 10.474 0.50397 12.599l0.0766 3.8638h4.9331c2.8941 0 1.327 0.20802 1.7575 2.5026 0.24489 1.3053 0.40352 5.514 0.35617 9.3718l-0.0891 7.2572-3.8281-0.18436-2.7936 0.20358 0.3333 23.854-3.5264 9e-3c-1.9395 5e-3 -5.9537 0.1928-8.9204 0.41723-4.1468 0.3137-5.5629 0.19505-6.1246-0.51315zm-63.438-3.4874c-15.068-4.206-19.561-22.045-8.0952-32.138 4.9835-4.3866 7.569-4.8006 27.876-4.4635 19.649 0.32619 21.047 0.6167 26.451 5.4996 5.2076 4.7048 7.2787 13.78 4.5814 20.076-1.5584 3.637-5.4762 7.7046-9.4124 9.772l-3.4024 1.7871-17.471 0.16006c-12.508 0.11459-18.339-0.0823-20.528-0.69326zm34.169-15.375c1.0395-1.0395 1.0395-4.0674 0-5.1069-1.1446-1.1446-31.513-1.1446-32.657 0-1.1379 1.1379-1.0007 3.2408 0.30574 4.6844 1.015 1.1216 2.4405 1.2288 16.329 1.2288 10.939 0 15.443-0.22666 16.023-0.80635zm202.17 13.798c-0.24638-0.24638-0.44797-4.0261-0.44797-8.3995v-7.9515h21.211c13.336 0 21.693-0.25824 22.511-0.6956 1.4503-0.77619 1.8122-4.284 0.5241-5.0801-0.42659-0.26365-10.255-0.41125-21.841-0.32798-17.973 0.12915-21.121 7e-3 -21.443-0.83245-0.20764-0.5411-0.43317-9.4072-0.50117-19.702l-0.12363-18.719 36.958-0.50407c20.327-0.27724 43.61-0.42843 51.741-0.33598l14.783 0.16809 0.18863 8.2263 0.18862 8.2263-81.684 0.3464v6.0476l80.851 0.34642 0.45615 5.5384c0.25089 3.0461 0.35343 6.5968 0.22787 7.8903l-0.22827 2.3519-36.958 0.67195-0.20662 2.8558-0.20663 2.8558 8.9421 2e-3c4.9181 1e-3 13.705 0.19977 19.525 0.44119l10.583 0.43894v16.589h-52.301c-28.765 0-52.502-0.20159-52.749-0.44798zm127.03-2.6552c-0.22842-0.22842-0.43432-8.3443-0.45755-18.035l-0.0423-17.62 15.237-0.44344c8.3805-0.2439 19.591-0.44345 24.913-0.44345h9.6754l-0.4171-5.0397-49.725-0.67196-0.18959-8.3465c-0.14143-6.2258 0.0293-8.4854 0.67195-8.8931 0.47385-0.30068 16.477-0.55132 35.563-0.55698 31.03-9e-3 34.745 0.10219 35.11 1.0526 0.22434 0.5846 0.40787 9.4573 0.40787 19.717v18.654l-11.195 0.4415c-6.157 0.24283-17.313 0.4415-24.791 0.4415-14.538 0-14.797 0.0624-13.934 3.3622 0.37573 1.4368 0.5749 1.465 7.5136 1.0642 6.1461-0.35502 39.179-0.7401 41.565-0.48455 0.6203 0.0664 0.83994 2.1986 0.83994 8.1534v8.0635h-35.166c-19.341 0-35.353-0.18689-35.581-0.41531zm84.186-29.841v-30.256l19.823 0.37191 0.41504 10.415c0.22827 5.7284 0.45505 19.26 0.50396 30.07l0.0889 19.655h-20.831zm125.66 28.24-2.3518-0.33598v-59.804l9.8157-0.18541 10.237 0.048461 0.0911 3.1157c0.0519 1.7761 0.24265 6.3542 0.25638 10.37 0.0137 4.0153 0.1163 7.3837 0.2279 7.4853 0.11162 0.1016 2.4342 0.24853 5.177 0.38463 2.9228 0.14504 5.7737 0.04372 5.7815 0.40536 0.0168 0.77274-0.1938 14.795-0.26145 16.215-0.0227 0.47645-2.8651 0.82709-5.811 0.9365l-5.3551 0.19891v21.503h-7.7275c-4.2501 0-8.7858-0.15119-10.079-0.33598zm-81.555-5.2332c-0.52305-0.84631-1.9182-52.44-1.439-53.216 0.2774-0.44883 12.285-0.68335 34.988-0.68335h34.566v8.7226c0 8.5061-0.0376 8.7303-1.5119 9.0319-0.83155 0.17011-11.175 0.4993-22.986 0.73154-11.811 0.23225-21.714 0.57025-22.007 0.75112-0.90937 0.56202-0.63395 15.321 0.30784 16.496 0.75006 0.93604 3.1916 0.9767 22.814 0.37989 12.086-0.36759 22.451-0.48512 23.035-0.26118 0.90417 0.34696 1.0332 1.6748 0.87287 8.9814l-0.18816 8.5743-14.111 0.10724c-7.7611 0.059-23.086 0.29317-34.056 0.52041-10.97 0.22723-20.098 0.16597-20.284-0.13614zm-506.58-32.087c-0.27718-0.2933-0.50397-3.8021-0.50397-7.7973v-7.264l23.854-0.36699 0.20481-3.1918 0.2048-3.1918h19.413v6.0173l24.526 0.36629 0.59931 6.4905c0.32962 3.5698 0.41471 6.9716 0.18908 7.5595-0.36339 0.94696-2.8943 1.069-22.162 1.069-11.964 0-27.168 0.18957-33.787 0.42127-6.6192 0.2317-12.262 0.1813-12.539-0.11199z" fill="#fff" stroke-width=".67196"></path>
</svg>
